<?xml version="1.0" encoding="utf-8"?>
<!-- Svg Vector Icons : http://www.onlinewebfonts.com/icon -->
<!DOCTYPE svg PUBLIC "-//W3C//DTD SVG 1.1//EN" "http://www.w3.org/Graphics/SVG/1.1/DTD/svg11.dtd">
<svg version="1.1" xmlns="http://www.w3.org/2000/svg" xmlns:xlink="http://www.w3.org/1999/xlink" x="0px" y="0px" viewBox="0 0 1000 1000" enable-background="new 0 0 1000 1000" xml:space="preserve">
<metadata> Svg Vector Icons : http://www.onlinewebfonts.com/icon </metadata>
<g><g transform="translate(0.000000,511.000000) scale(0.100000,-0.100000)"><path d="M4824.6,4563c-36.4-28.8-494.9-446.9-1018.5-930.3c-1049.2-968.6-1024.3-939.9-955.2-1095.2c46-105.5,134.3-165,245.5-165c95.9,0,69-23,824.8,680.9c305,285.8,617.6,573.5,692.4,640.6l138.1,120.8V485.2c0-3661.6-7.7-3410.4,115.1-3473.7c71-36.4,178.4-36.4,247.4-1.9c115.1,61.4,107.4-207.2,117,3446.8l9.6,3350.9l613.8-565.8c1018.5-939.9,934.1-868.9,1045.4-868.9c78.6,0,105.5,9.6,161.1,57.5c115.1,101.7,132.3,224.4,42.2,324.2c-57.5,63.3-1874,1737.8-1960.3,1804.9C5045.2,4637.9,4920.5,4639.8,4824.6,4563z"/><path d="M263.4-1670.7c-111.2-55.6-126.6-111.3-145.8-535.2c-30.7-657.9-21.1-1135.5,26.9-1358c90.2-425.8,299.2-680.9,627.2-767.2c195.6-51.8,705.9-67.1,1476.9-44.1c510.2,13.4,1093.3,13.4,2081.1-1.9c2629.7-42.2,4607.2-23,4879.6,46c341.4,88.2,554.3,345.3,648.3,788.3c32.6,155.4,40.3,262.8,42.2,583.1c1.9,504.5-26.9,1137.4-53.7,1193c-30.7,61.4-141.9,130.4-207.2,130.4c-82.5,0-180.3-47.9-220.6-107.4c-32.6-49.9-34.5-122.7-44.1-947.5c-9.6-876.6-9.6-893.8-51.8-972.5c-55.6-101.7-120.8-151.5-253.2-191.8c-99.7-30.7-402.8-32.6-4116.2-26.8l-4008.8,3.8l-105.5,51.8c-80.6,40.3-117,71-153.4,138.1l-48,86.3l-9.6,901.5c-11.5,1007-7.7,980.1-143.9,1037.7C397.7-1628.6,344-1628.6,263.4-1670.7z"/></g></g>
</svg>